<?xml version="1.0" encoding="utf-8"?>
<!-- Generator: Adobe Illustrator 21.1.0, SVG Export Plug-In . SVG Version: 6.00 Build 0)  -->
<svg version="1.1" id="Layer_1" xmlns="http://www.w3.org/2000/svg" xmlns:xlink="http://www.w3.org/1999/xlink" x="0px" y="0px"
	 viewBox="0 0 551 360" style="enable-background:new 0 0 551 360;" xml:space="preserve">
<style type="text/css">
	.st0{fill:#ED1E25;}
	.st1{fill:#FCB217;}
	.st2{fill:#FFFFFF;}
	.st3{fill:#FFCD78;}
	.st4{fill:#FDDDCF;}
	.st5{fill:#FFEAC8;}
	.st6{fill:#FEC664;}
	.st7{fill:#F36F51;}
	.st8{fill:#FFF2E1;}
	.st9{fill:#F36D50;}
	.st10{fill:#FEC662;}
	.st11{fill:#F36E50;}
	.st12{fill:#FDD9C9;}
	.st13{fill:#F58668;}
	.st14{fill:#FFFFFE;}
	.st15{fill:#FFFEFE;}
	.st16{fill:#FCB218;}
	.st17{fill:#FDBA14;}
	.st18{fill:#FDB815;}
	.st19{fill:#FDB715;}
	.st20{fill:#FCB31B;}
	.st21{fill:#FDB914;}
	.st22{fill:#F4846E;}
	.st23{fill:#EE2425;}
	.st24{fill:#FDB915;}
	.st25{fill:#FDB616;}
	.st26{fill:#FEBB13;}
	.st27{fill:#FFF4E2;}
	.st28{fill:#FFECCB;}
	.st29{fill:#FFEDD0;}
	.st30{fill:#FFF3E0;}
	.st31{fill:#FFF4E4;}
	.st32{fill:#FEC051;}
	.st33{fill:#FDB72E;}
	.st34{fill:#FEC04E;}
	.st35{fill:#FDB72C;}
	.st36{fill:#FCB219;}
	.st37{fill:#FEC151;}
	.st38{fill:#ED2225;}
	.st39{fill:#ED2125;}
	.st40{fill:#EE2D29;}
	.st41{fill:#FDB939;}
	.st42{fill:#FDBA39;}
	.st43{fill:#FFCC76;}
	.st44{fill:#FCB31D;}
	.st45{fill:#FFEFD5;}
</style>
<g id="_x34_Di0I9.tif">
	<g>
		<path class="st0" d="M184,342c-3.7,0-7.3,0-11,0c-2.7-0.8-5.3-0.8-8,0c-3.7,0-7.3,0-11,0c-2.9-1.9-6.2-0.8-9.3-1.2
			c-27.4-3.4-51.5-14.6-73-31.5C43.3,287,24.6,258.1,15.5,223c-1.6-6-2.1-12.1-2.5-18.2c-0.1-1.7,0.1-3.4-1-4.8c0-3.3,0-6.7,0-10
			c1.1-3.2,0.2-6.5,0.5-9.7c-0.3-2.1,0.6-4.3-0.5-6.3c0-1.7,0-3.3,0-5c1.9-2.9,0.8-6.2,1.2-9.3c3.5-27.9,14.9-52.4,32.4-74.1
			C69,56.3,99.3,37.7,135.9,29.5c4.6-1,9.2-1.2,13.9-1.5c2.5-0.1,5,0.3,7.2-1c2.7,0,5.3,0,8,0c2.9,1,5.8,0.3,8.7,0.5
			c2.1-0.3,4.2,0.6,6.3-0.5c0.7,0,1.3,0,2,0c2.6,1.4,5.4,0.9,8.1,1c29.5,2.1,54.8,14.5,78,32c2.9,2.2,5.9,4.4,8.2,7.2
			c2.6,2.3,5.4,4.4,7.5,7.2c1,1.3,2.1,2.8,1.2,4.5c-0.8,1.5-2.5,1.3-4,1.5c-5.2,0.4-10.6-1-15.7,1c-0.5,0.6-1.1,1.2-1.7,1.7
			c-2.7,3,0,2.8,1.8,2.8c7.5,0.1,15,0.2,22.4,0c5.1-0.1,8.6,2,11.2,6.2c1.1,1.7,2.4,3.4,1.5,5.5c-1,2.2-3.3,1.9-5.3,1.9
			c-12.6,0-25.3,0-37.9,0c-2.1,0-4.4-0.4-6.3,1c-0.3,0.5-0.7,0.9-1,1.3c-2.2,2.5-0.6,3.1,1.7,3.1c5.1,0.1,10.3,0,15.5,0
			c11.3,0,22.6,0,33.9,0c5,0,8.1,2.4,10.1,6.7c2,4.4,0.6,6.7-4.2,6.8c-7.6,0.2-15.3,0-22.9,0.1c-14.3,0.2-28.6-0.5-42.8,0.4
			c-0.4,0.2-0.8,0.4-1.2,0.6c-1,1-1.8,2.1-1.4,3.7c0.3,0.4,0.6,0.7,1,0.9c3.5,0.8,7,0.4,10.5,0.4c20.1,0.1,40.3,0,60.4,0
			c5.6,0,8.5,2.4,9.3,7.6c0.5,3.2-0.5,5.2-4,5.3c-1.8,0-3.7,0-5.5,0.1c-25.3,0.1-50.6-0.3-75.8,0.2c-0.5,0.1-0.9,0.3-1.3,0.5
			c-1.3,1.2-2.1,2.5-1.1,4.3c0.4,0.3,0.8,0.5,1.3,0.7c9.3,0.7,18.7,0.2,28,0.3c18.6,0.1,37.3,0,55.9,0.1c5.2,0,7.1,1.7,7.9,6.3
			c0.8,4.7-0.9,7.1-5.8,7.1c-29.9,0.2-59.9,0.3-89.8,0c-0.3,0-0.6-0.1-1-0.2c-13.4-2.1-13.9-1.9-16.1,11.2
			c-2.5,14.6-5.2,29.2-7.5,43.8c-1,6.4,0.8,9,7.2,9.9c3.6,0.6,7.3,0.5,10.9-0.7c2-0.6,3-1.8,3.2-3.9c0.2-2.5-1.7-2.4-3.2-2.9
			c-5.6-1.6-7.2-3.8-6.1-9.5c0.9-4.8,0-10.2,4.2-14c0.7-0.2,1.5-0.1,1.7,0.5c1.1,4,4.7,4.8,7.9,6.2c1.4,1.4,1.8,3.2,2.1,5
			c2,11.7,9.5,17.5,20.6,19.1c5.6,0.8,11.3,1,16.8-0.5c2-0.5,3.8-1.3,4.6-3.4c0.6-1.6,1.3-3.5,0.4-4.8c-1-1.4-2.7,0-4.1,0.3
			c-4.8,1.1-9.6,1.1-14.4,0.4c-4.5-0.6-8.1-3-10.4-7c-2.7-4.8-1-8.2,4.5-8.5c6.8-0.4,13.6-0.1,20.5-0.1c7.1,0,7.8-0.7,8-8.1
			c0-0.8,0-1.7,0-2.5c0-13.1-6.4-19.7-19.6-19.3c-11.1,0.3-19.9,4.8-24.4,15.7c-1.1,2.6-1.6,5.5-4.2,7.2c-3.2,1.6-6.3,1.2-9.3-0.5
			c-3.6-5-1.4-11.8,4.3-13.3c1.1-0.3,2.3-0.2,3.4-0.7c2-1.1,1.7-3,1.8-4.8c0.2-2-1.3-2.3-2.8-2.8c-4.4-1.7-4.6-2.5-1.4-6
			c2.3-0.5,4.6-0.3,7-0.3c28.4,0,56.8,0,85.2,0c2.7,0,5.9-0.7,7.2,2.9c0.4,1.5,0.4,3-0.2,4.4c-2.4,5.8-4.4,11.8-5.9,17.9
			c-0.3,1.1-0.9,2.1-1.8,2.9c-0.5,0.4-1,0.6-1.6,0.8c-5,0.9-9.9,1.3-14.8-0.2c-2.3-1.6-1.4-3.5-0.3-5.2c1.5-2.5,3.8-4.6,6.6-4.9
			c7.1-0.7,8.4-5.8,9.6-11.7c-3.6-0.8-6.1,1.1-8.7,2.9c-4.7,3.3-4.7,3.3-7.2-1.6c-1.6-2.9-4.4-1.4-6.7-1.7c-2.5-0.3-4,0.8-4.5,3.5
			c-1.1,6-2.3,12.1-3.3,18.1c-1.5,8.5-3.2,17-4.3,25.5c-0.3,1.9-1.9,4.3,1.1,5.6c2.8,1.2,8.2,0,9.5-2.1c0.8-1.2,1.2-2.7,2.6-3.6
			c0.8-0.4,1.6-0.5,2.5-0.6c8.1,0.4,16.2-1,24.2,0.8c2.3,4.8,1.4,8.9-3,12.7c-2.3,0.7-4.6,0.4-6.9,0.4c-24.1,0-48.2,0-72.4,0
			c-2.4,0-5.1-0.6-6.9,1.8c1,3.6,4,2.5,6.2,2.5c15.8,0.1,31.7,0.1,47.5,0.1c7.5,0,15,0,22.5,0c3,0,6.4-0.5,7.9,2.9
			c1.6,3.6-0.3,6.8-2.5,9.6c-0.5,0.7-1.3,1.1-2,1.5c-2.1,0.8-4.3,0.5-6.4,0.5c-19.8,0-39.6,0-59.5,0c-2.2,0-4.7-0.7-6.4,1.6
			c1,3.8,4.2,2.7,6.6,2.8c16.1,0.1,32.3,0.1,48.4,0.1c2.2,0,4.3-0.1,6.5,0c3.1,0.1,6.7-0.3,7.3,4.1c0.5,3.9-3.5,8.9-7.3,9.4
			c-1.5,0.2-3,0.1-4.5,0.1c-13.8,0-27.6,0-41.4,0c-2,0-4-0.4-5.8,0.7c-0.2,0.4-0.3,0.9-0.3,1.3c1.5,3.1,4.2,3.4,7.2,3.4
			c11.1,0,22.3,0,33.4,0c2.6,0,5.8-0.5,7.1,2.4c1.2,2.8-1.1,5-2.7,7.1c-2.1,2.9-4.9,4.1-8.6,4.1c-7.5,0.1-14.9-0.6-22.3,0.4
			c-0.4,0.5-0.4,1-0.1,1.6c2.2,3.5,5.6,3.5,9.2,3.6c3,0,7.1-1.1,8.5,2.3c1.5,3.8-2.9,5.3-5,7.6c-0.3,0.4-0.8,0.6-1.1,1
			c-7,7.2-15.2,12.9-23.7,18c-15.9,9.5-32.8,16.8-51.1,20.1C195.5,341.2,189.6,340.1,184,342z"/>
		<path class="st1" d="M263.7,79.9c6.8-1.6,13.8,0.2,21-1.1c-2.5-4.7-6.9-7.1-9.7-10.9c-0.4-2.6,1.6-3.9,3.2-5.2
			C298.8,45.4,322.4,34,349,28.9c3.6-0.7,7.2-0.8,10.9-0.9c2.7-0.1,5.6,0.4,8.1-1c2,0,4,0,6,0c3.3,0.8,6.7,0.8,10,0c3,0,6,0,9,0
			c2.2,1.6,4.8,0.8,7.2,1c31.9,2.6,59.2,16.1,83.2,36.5c24.4,20.7,40.7,46.8,49.5,77.6c2.5,8.6,2.9,17.3,3.6,26.1
			c0.1,1-0.3,2,0.5,2.9c0,2.7,0,5.3,0,8c-0.8,3.7-0.8,7.3,0,11c0,3,0,6,0,9c-1.5,6.8-0.8,13.9-2.4,20.7
			c-6.4,27.7-19.2,51.9-38.6,72.8c-22.5,24.1-49.8,39.6-81.8,47.1c-4.6,1.1-9.2,1.2-13.8,1.5c-2.1,0.1-4.3-0.1-6.3,1
			c-3.7,0-7.3,0-11,0c-2.7-0.8-5.3-0.8-8,0c-3.7,0-7.3,0-11,0c-3.2-2-6.8-0.9-10.2-1.3c-28.9-4-53.9-16.3-76.1-34.7
			c-1.5-1.2-3.3-2.5-2.7-4.9c2.5-2.1,5.1-4.1,7.6-6.2c-0.3-0.6-0.7-1.3-1-1.9c-2.8,0-5.7-0.3-8.5,0.1c-5.3,0.7-8.9-1.4-11.2-5.9
			c0.5-1,1.3-1.5,2.4-1.5c7.9-0.1,15.7,0,22.3-0.1c-7.7,0.4-16.7-0.7-25.6,0.6c-1.3-2.8,1.2-1.9,2.2-1.9c6.5-0.1,13.1-0.7,19.5,0.1
			c8.1,1,11.8-3.3,14.9-9.6c-1.2-1.4-2.8-0.7-4.2-0.8c-11.7-0.1-23.3-0.4-35,0.1c-6,0.3-9.4-1.8-11.3-7.1c2.9-1,5.9-0.5,8.9-0.5
			c14.7-0.1,29.5,0,44.2,0c-16.9,0-33.8,0-50.7,0c-0.8,0-1.7,0-2.4,0.5c0-3.1,2.4-1.7,3.6-1.7c15.6-0.1,31.3-0.3,46.9,0.1
			c5.1,0.1,7.8-1.5,10-5.9c2.2-4.3,0.7-4.5-3.1-4.5c-13.3,0.1-26.6,0.1-39.9,0.1c-6.2,0-12.3-0.3-18.5,0.1c-5,0.4-7.9-1.2-8.9-6.2
			c1.3-2.3,3.6-1.4,5.4-1.4c21.6-0.1,43.3,0,64.9-0.1c1.8,0,3.7,0.6,5.3-0.6c0.2-0.2,0.5-0.5,0.7-0.7c1.6-2.9,4.3-6.3,3-9
			c-1.2-2.6-5.4-1-8.3-1c-23.6-0.1-47.2-0.2-70.8,0.1c-4.8,0.1-7.1-1.5-7.3-6.2c1.3-2.3,3.5-1.4,5.4-1.4c26.4-0.1,52.8,0,79.2-0.1
			c1.7,0,3.7,0.7,5.2-0.7c1.8-3.2,1.9-6.9,3-10.4c-1.6-1.7-3.7-0.9-5.5-0.8c-6.5,0.1-12.9-0.6-19.4,0.4c-0.6,0.1-1.2,0.2-1.8,0.2
			c-2.5-3.5-1.7-6.5,1.4-9.2c7.1-2.1,14.3-0.8,21.5-0.9c3,0.1,4.1,2.5,5.5,4.5c7.7,11.4,24.5,12.3,34.4,8.6c4.3-1.6,3-6.1,3.9-9.5
			c-2-0.9-3.5,0.3-5,0.6c-15.1,3.2-25.4-5.2-24.8-20.6c0.2-6.5,2.4-12.5,6.2-17.7c6.4-8.9,15.7-9.4,25.2-7.3c6.9,1.5,6,0.4,7.3-4.9
			c0.7-2.9-0.6-4.4-3.3-5.1c-14.2-3.7-27.4-2.5-38.4,8.5c-1.3,1.3-2.4,2.8-4.6,2.6c-0.3-3.7-3-3.2-5.5-3.2c-29.8,0-59.6,0-89.4,0
			c-1.5,0-3,0-4.5,0c0-0.8,0.3-1.2,1.1-1.2c31.3,0,62.6,0,94.3,0c-1.6,0-2.7,0-3.9,0c-28.6,0-57.3,0-85.9,0c-2.2,0-4.8,1-6-2.1
			c-0.6-2.1-0.5-4,1.7-5.3c30.1,0,60.3,0,90.4-0.1c1.8,0,5.1,2,5.4-2c0.4-5.3-1.8-8.2-5.9-8.2c-27.5,0-54.9,0-82.4,0
			c-1.9,0-4,0.6-5.8-0.7c1.7-0.9,3.6-0.5,5.4-0.5c26.8,0,53.5,0,80.3,0c1.5,0,3.1,0.3,4.6-0.4c0.6-0.4-0.5-0.7-0.1-0.2
			c0.2,0.3,0.1,0.4-0.2,0.5c-0.8,0.3-1.6,0.2-2.4,0.2c-28.1,0-56.2,0-84.3,0c-1.1,0-2.3,0.2-3.4-0.5c0.2-2.2,0.7-4.2,2-6
			c1.7,1,3.6,0.5,5.4,0.5c24.6,0,49.2,0,73.9,0c1.6,0,3.2-0.3,4,0c-25.4,0-51.6,0-77.8,0c-1.8,0-3.7,0.5-5.4-0.5
			c1.7-1.6,3.8-0.8,5.7-0.9c25.4-0.1,50.9,0,76.3-0.1c1.7,0,4.7,1.7,5.2-1.6c0.5-3.4-3.1-8.3-5.8-8.5c-1.2-0.1-2.3,0-3.5,0
			c-23.1,0-46.2,0-69.3-0.1c-1.2,0-4.4,1.8-3.7-2.1c1.4,0.8,2.8,0.8,4.3,0.8c23.3,0,46.6,0,70,0c0.6,0,1.7,0.6,1.8-0.7
			c-0.6,1.5-2,0.6-2.9,0.6c-22.5,0.1-45,0.1-67.5,0c-1.9,0-4.1,0.8-5.4-1.5c0.2-1.6,0.8-3,1.8-4.2c10.3-0.7,20.6-0.2,30.9-0.3
			c11.6-0.1,23.3,0,34.9,0c1.3,0,2.8-0.6,4,0.5c-0.6-1.2-1.9-0.5-2.7-0.5c-20.4,0-40.9,0-61.3-0.1c-1.8,0-3.7,0.5-5.4-0.5
			c1.5-1.6,3.5-0.9,5.2-0.9c20.8-0.1,41.6,0,62.4,0c5.6,0,5.4,0.1,3.2-4.8c-1.8-3.9-4.1-5.6-8.7-5.5c-18.4,0.3-36.9,0.1-55.8,0.1
			c1-3.3,2.4-5.8,4.5-7.9c4.9,1.1,9.9,0.4,14.9,0.5c10.7,0.1,21.5,0,32.2,0c-13.9,0-27.8,0-41.7,0c-1.8,0-3.7,0.5-5.4-0.5
			c1.6-1.4,3.5-0.8,5.3-0.8c13.3-0.1,26.6,0,39.9-0.1c1.8,0,3.6,0.5,5.3-0.5c-3.4-8.3-5.3-9.7-13.7-9.7c-9.4,0-18.8,0-28.9,0
			c1.7-3.3,3.7-5.1,5.7-7.1c7.2-0.8,14.4-0.2,19.6-0.4C277.5,79.7,270.5,81.5,263.7,79.9z"/>
		<path class="st2" d="M12,200c2.4,0.1,1.7,2.1,1.8,3.4c9.7,71.2,61.5,124.6,132.3,136.4c2.6,0.4,6-1,7.9,2.3
			c-46.1,0-92.2,0-138.3,0.1c-3.1,0-3.8-0.7-3.8-3.8C12,292.2,12,246.1,12,200z"/>
		<path class="st2" d="M150,28.9c-51.7,7.8-91,34-117.3,79.2c-10.2,17.5-16.2,36.4-18.7,56.5c-0.2,1.6,0.7,3.8-1.9,4.5
			c0-46.1,0-92.2-0.1-138.3c0-3.1,0.7-3.8,3.8-3.8C61.8,27,107.9,27,154,27C153.7,29.8,151.1,27.7,150,28.9z"/>
		<path class="st2" d="M537,171c-2.2-4.5-1.9-9.6-2.8-14.4c-11.7-64.9-64-116.5-128.9-126.7c-1.8-0.3-3.6-0.7-5.4-1
			c-1-1.3-3.7,0.9-4-1.9c45.8,0,91.7,0,137.5-0.1c3,0,3.6,0.6,3.6,3.6C537,77.3,537,124.2,537,171z"/>
		<path class="st2" d="M394,342c0.9-2.2,3.1-1.6,4.7-1.8c70.8-8.6,127.1-64.2,136.6-134.8c0.3-2.1-0.3-4.7,1.7-6.4
			c0,46.5,0,93,0.1,139.5c0,3-0.6,3.6-3.6,3.6C487,342,440.5,342,394,342z"/>
		<path class="st2" d="M360,28.9c-32.3,4.4-60.8,17.2-85,39.1c-10.3-8.3-20.8-16.3-32.7-22.5c-16.5-8.6-34-13.9-52.3-16.6
			c-1-1.3-3.7,0.9-4-1.9c59.3,0,118.7,0,178,0C363.7,29.8,361,27.7,360,28.9z"/>
		<path class="st2" d="M275,301.1c24.1,21.7,52.3,34.7,84.5,39c1.6,0.2,3.8-0.6,4.5,1.9c-60,0-120,0-180,0c0.5-2.1,2.4-1.5,3.7-1.7
			c32.7-3.8,61.3-16.9,86-38.5C274.1,301.5,274.5,301.3,275,301.1z"/>
		<path class="st3" d="M537,190c-1.6-3.7-1.6-7.3,0-11C537,182.7,537,186.3,537,190z"/>
		<path class="st4" d="M186,27c1.3,0.6,2.7,1.3,4,1.9c-2.7-0.4-5.8,0.9-8-1.9C183.3,27,184.7,27,186,27z"/>
		<path class="st5" d="M360,28.9c1.3-0.6,2.7-1.3,4-1.9c1.3,0,2.7,0,4,0C365.8,29.7,362.7,28.7,360,28.9z"/>
		<path class="st6" d="M384,27c-3.3,1.5-6.7,1.6-10,0C377.3,27,380.7,27,384,27z"/>
		<path class="st7" d="M12.8,179.9c-0.2,3.4,1.2,6.9-0.8,10.1c0-3.3,0-6.7,0-10C12.2,179.5,12.5,179.5,12.8,179.9z"/>
		<path class="st8" d="M396,27c1.3,0.6,2.7,1.3,4,1.9c-2.4-0.3-5.3,1-7-1.9C394,27,395,27,396,27z"/>
		<path class="st9" d="M174.1,27.9c-3-0.1-6.2,1.1-9.1-0.9c3,0,6,0,9,0c0.4,0.2,0.5,0.3,0.4,0.5C174.3,27.7,174.2,27.9,174.1,27.9z"
			/>
		<path class="st10" d="M375,342c2.7-1.5,5.3-1.5,8,0C380.3,342,377.7,342,375,342z"/>
		<path class="st11" d="M165,342c2.7-1.6,5.3-1.5,8,0C170.3,342,167.7,342,165,342z"/>
		<path class="st12" d="M150,28.9c1.3-0.6,2.7-1.3,4-1.9c1,0,2,0,3,0C155.2,29.7,152.4,28.6,150,28.9z"/>
		<path class="st13" d="M174.1,27.9c0-0.3,0-0.6-0.1-0.9c2,0,4,0,6,0C178.3,29.2,176.1,27.6,174.1,27.9z"/>
		<path class="st13" d="M12.8,179.9c-0.3,0-0.6,0-0.8,0.1c0-2,0-4,0-6C14.1,175.7,12.6,178,12.8,179.9z"/>
		<path class="st2" d="M50.1,176.1c-2.5,14.9-5,29.9-7.4,44.8c-0.4,2.4-1.5,3.1-4,3.2c-11.5,0.2-11.5,0.3-9.6-10.5
			c3.3-18.5,6.6-37,9.6-55.5c0.5-3,1.6-3.9,4.4-3.8c6,0.2,12,0.2,18,0c2.8-0.1,3.6,0.9,3.8,3.7c0.5,11.7,1.3,23.4,2.9,35.3
			c4.7-11.2,9.6-22.4,14.1-33.8c1.6-4.1,3.6-5.6,8-5.3c5.3,0.4,10.7,0.3,16,0c3.6-0.2,4.6,0.8,4,4.4c-3.3,17.7-6.3,35.3-9.5,53
			c-0.1,0.8-0.3,1.6-0.4,2.5c-1.6,10.3-3.7,11.6-14.2,9.9c-3-0.5-1.7-2.4-1.5-3.7c2.4-13.9,4.9-27.8,7.4-41.7
			c0.2-1.1,0.2-2.2-0.5-3.5c-4.1,9.7-8.1,19.5-12.2,29.2c-2.4,5.7-4.8,11.3-7,17c-0.8,2-1.9,2.8-4,2.7c-3.3-0.2-6.7-0.3-10,0
			c-3.3,0.3-3.8-1.2-3.9-4c-0.6-14.3-1.5-28.6-2.2-42.9C51.4,176.5,51.4,175.3,50.1,176.1z"/>
		<path class="st2" d="M138.6,218.6c-5.8,4.1-11.2,6.2-17.2,6.3c-11.7,0.1-18.7-9.1-15.8-20.5c2.2-8.6,8.1-13.5,16.6-15.4
			c5.4-1.2,10.9-1.4,16.4-1.3c1.4,0,3,0.8,3.9-1.2c0.9-2,0.2-3.6-1-5.1c-1.6-1.9-3.8-2.4-6.3-2.5c-7-0.2-13.9,0.6-21,2.5
			c0.1-4.1,1.9-7.7,2.9-11.4c0.3-1.3,1.6-1.7,2.7-1.9c9.2-2,18.5-2.9,27.6-0.2c9.6,2.8,12.8,8.8,10.9,18.6
			c-2.2,11.3-4.3,22.5-6.2,33.8c-0.5,3-1.6,4-4.5,3.7c-1.8-0.2-3.7-0.2-5.5,0C138.5,224.5,137.2,223.1,138.6,218.6z"/>
		<path class="st14" d="M230.8,189.9c5.4-18.7,18.2-27,35.6-23c9.3,2.1,13.9,7.3,14.9,16.8c0.1,0.5,0.1,1,0.1,1.5
			c0.7,13.2-0.5,14.5-13.4,14.5c-6.3,0-12.6,0.2-19-0.1c-3.7-0.1-3.9,1.7-2.8,4.3c2.1,4.8,5.9,7.4,11.1,8c7.4,0.9,11.8,0.1,20.7-3.7
			c-0.6,3.8-1.3,7.3-1.7,10.9c-0.3,2.3-2,3-3.8,3.4c-10.4,2.5-20.8,2.6-30.6-2.3c-9-4.5-11.5-12.7-12.1-21.9
			C227.4,195.2,228.4,192.4,230.8,189.9z"/>
		<path class="st2" d="M325.5,166.9c11.3-17,32.9-17,46.5-12.1c1.3,0.5,2.5,0.8,2.2,2.7c-0.7,3.6-1.3,7.2-1.9,10.8
			c-0.3,1.9-1.2,1.9-2.8,1.2c-2.7-1.3-5.6-2.2-8.6-2.5c-15.1-1.5-24.2,6.2-26,22.2c-0.7,6.7-0.5,13.4,5.8,17.5
			c6.5,4.3,13.7,4.5,21,1.6c1.2-0.5,2.3-1.2,3.9-2.1c-0.7,4.3-1.2,8.2-1.9,12.1c-0.5,3-3,4.1-5.4,4.5c-14.7,2.9-29.7,1.7-38.2-14.5
			c-4-2.6-4.1-6.5-3.8-10.6c0.3-2.7-0.6-5.5,1.4-7.9C319.4,181.9,321.4,174.1,325.5,166.9z"/>
		<path class="st2" d="M174.2,224.2c-5.9-0.3-10.2-0.2-14.5-1c-3.6-0.7-4.1-2.4-3.3-5.6c1.8-7.5,1.6-7.5,9.2-6
			c3.8,0.7,7.6,0.7,11.4,0.6c3.4-0.1,5.2-2.1,5.8-5.1c0.5-2.9-1.6-4.2-3.8-5.2c-2.7-1.2-5.5-2.3-8.2-3.5c-5.5-2.5-8.7-6.7-8.6-12.8
			c0.1-6.5,1.5-12.9,7.9-16.2c10-5.1,20.7-3.6,31.3-2.2c1.3,0.2,1.5,1,1.2,2.2c-0.6,2.7-1.3,5.5-1.9,8.2c-0.5,2.1-1.8,1.9-3.4,1.6
			c-4.1-0.7-8.3-0.7-12.4-0.2c-2.6,0.3-5.2,1.2-5.7,4c-0.6,2.9,1.8,4.5,4.1,5.6c1.6,0.8,3.4,1.3,5.1,1.9c8.1,2.8,11,6.2,11.4,13.3
			c0.4,8.2-3.2,14.9-10.1,18c-1.8,0.8-3.7,1.6-5.7,1.8C180.2,224,176.4,224.1,174.2,224.2z"/>
		<path class="st15" d="M226.2,163c-0.2,0.2-0.2,0.5,0,0.7c-1.6,4,1.2,3.6,3.5,3.4c3.9-0.5,5.1,0.9,3.8,4.7
			c-0.5,1.4-0.5,2.9-0.6,4.4c-0.2,2.1-1.1,3.6-3.5,3c-5.8-1.4-7.6,1.5-7.6,6.7c0,1.5-0.4,2.9-0.6,4.4l0,0.4
			c-0.9,4.9-1.9,9.8-2.8,14.6c-1.1,5.7,0.7,7.9,6.6,7c3.6-0.5,4.7-0.3,3.7,3.7c-1.7,6.5-2.3,7.5-9.2,7.8c-3.5,0.2-7,0.3-10.4-0.6
			c-5.8-1.5-7.7-4.3-6.7-10.2c3.2-18.6,6.5-37.2,9.7-55.8c0.3-1.6,0.6-3.1,2.6-2.9c4.3,0.3,8.6-0.8,12.8,0.7
			c-0.2,1.6-0.3,3.2-0.5,4.8C226.2,160.8,226.9,162,226.2,163z"/>
		<path class="st14" d="M297.9,208.8c-1.3,2.6-1.1,5.5-1.7,8.3c0.1,5.7-2.6,7.9-8.3,6.9c-1.8-0.3-3.7-0.2-5.5,0
			c-2.3,0.2-2.9-0.8-2.5-2.9c3-17.3,6.1-34.7,9.1-52c0.2-1.1,0.6-2,1.8-2c4.2,0,8.3,0,12.5,0c1.5,0,1.6,1,1.2,2
			c-0.6,1.5-0.1,3.2-0.7,5c2.5-1.9,4.9-4.1,7.6-5.7c2.9-1.7,6.3-1.9,10.1-1.4c-1.9,4.4-4,8.4-4.7,13c-0.4,2.5-2.7,1.5-4.1,1.6
			c-5.3,0.6-9.6,2.5-11.3,8.1c1.8,2.7,0.3,5.5,0.2,8.2C300.6,201.7,301,205.8,297.9,208.8z"/>
		<path class="st16" d="M299.6,198.2c0.2-2.9,0.4-5.8,1.6-8.4c5.3,0.1,10.5,0.2,15.8,0.3c1.3,7.9,0.9,8.4-6.8,8.4
			c-3,0-5.9,0.7-8.9,0.6C300.7,198.9,300.1,198.6,299.6,198.2z"/>
		<path class="st17" d="M229,143c29.8,0,59.6,0,89.5,0c0.3,0,0.6,0.2,0.9,1c-30.1,0-60.2,0-90.3,0C229,143.7,229,143.3,229,143z"/>
		<path class="st18" d="M320,227.8c-1.7,1.9-4,1.2-6.1,1.2c-25.6,0-51.2,0-76.9,0c-2.3,0-4.7-0.3-6.8,0.9c-0.8-3.9,2.2-2.1,3.4-2.1
			c12.8-0.1,25.6-0.1,38.4-0.1C288,227.8,304,227.8,320,227.8z"/>
		<path class="st19" d="M236,123c2.1,1.2,4.5,1,6.8,1c22,0,43.9,0,65.9,0c1.6,0,3.3-0.4,4.9,0.5c-1.5,0.9-3,0.5-4.4,0.5
			c-22.5,0-44.9,0-67.4,0c-2.1,0-4.4,0.6-6.1-1.3C235.8,123.4,235.9,123.2,236,123z"/>
		<path class="st17" d="M312.9,246.9c-1.1,2.2-3.1,1-4.6,1c-21.6,0.1-43.1,0.1-64.7,0.1c-2.1,0-4.3-0.2-6.3,0.9
			c-0.3-0.6-0.9-1.4-0.2-1.7c0.8-0.4,1.9-0.4,2.9-0.4C264.2,246.8,288.5,246.9,312.9,246.9z"/>
		<path class="st19" d="M238.2,118c23.7,0,47.4,0,71.5,0c-0.4,0.5-0.6,0.9-0.7,0.9c-23.7,0-47.4,0-71.1-0.1
			C237.9,118.5,238,118.2,238.2,118z"/>
		<path class="st20" d="M221.1,190.7l-0.1-0.2c0,0,0.2-0.2,0.2-0.2c3.2-0.1,6.5-0.3,9.7-0.4c-0.3,2.8-0.6,5.6-0.9,8.4
			c-0.8,0-1.7-0.1-2.4,0c-4.1,0.6-6.2-0.8-5.6-5.2C221.9,192.3,221.4,191.5,221.1,190.7z"/>
		<path class="st19" d="M260.9,286.1c2.2-1.9,4.8-1,7.2-1.1c7.1-0.1,14.2,0,21.3,0.9c-6.8,0-13.5,0-20.3,0c-2.5,0-5-0.3-7.3,1.1
			C261.5,286.8,261.2,286.4,260.9,286.1z"/>
		<path class="st19" d="M298,216.9c8.3-1.2,16.7-2.1,24.9,0.5C314.7,217.2,306.3,217.1,298,216.9z"/>
		<path class="st17" d="M301,198c2.8-1.9,6-0.9,9-1c6.9-0.2,6.9-0.1,7-7c0.3-0.1,0.6-0.2,0.9-0.2c0,2.8,0,5.6-0.1,8.4
			C312.1,201,306.5,201.4,301,198z"/>
		<path class="st21" d="M263.7,79.9c6.9,0,13.8,0,20.7,0c0,0.3,0,0.7,0,1c-7.3,0-14.6,0-21.8,0C263,80.6,263.4,80.2,263.7,79.9z"/>
		<path class="st22" d="M50.1,176.1c-0.2-1.3-0.3-2.5,1.4-3.4c0.7,1.5,0.7,2.9,0.3,4.4C51.3,176.8,50.7,176.4,50.1,176.1z"/>
		<path class="st2" d="M488.1,219.1c-2.7,1.6-4.8,3.3-7.2,4.3c-9.9,4.1-20.2,0-24.7-9.7c-6.2-13.1-1.2-32.9,10.5-41.6
			c9.7-7.2,18.6-6.7,29.2,1.7c1-5.4,2.2-10.5,2.9-15.7c0.4-2.9,1.6-3.5,4.2-3.5c11.3-0.3,11.2-0.4,9.3,10.6
			c-3.1,17.9-6.3,35.7-9.1,53.6c-0.6,3.9-1.7,5.7-5.8,5.1c-1.6-0.2-3.3-0.2-5,0C488.8,224.4,486.4,223.8,488.1,219.1z"/>
		<path class="st2" d="M400.6,219.1c-5.6,3.6-9.9,5.7-14.9,5.9c-6.7,0.3-12.9-1-16.2-7.4c-3.4-6.5-2.8-13.3,1.1-19.5
			c3.9-6.2,10-9.2,17.1-9.9c4.4-0.5,8.9-1.4,13.4-0.9c1.2,0.1,2.9,0.6,3.5-0.9c0.7-1.7,0.1-3.2-1.1-4.6c-1.7-2-3.9-2.4-6.3-2.5
			c-5.2-0.2-10.3,0.4-15.4,1.3c-1.8,0.3-3.6,0.8-5.6,0.2c0.2-0.9,0.4-1.8,0.7-2.7c3.1-10.8,3.2-10.9,14.4-11.7
			c5.6-0.4,11.3-0.6,16.9,0.8c10.5,2.6,14.8,9.3,12.8,19.9c-2.1,10.9-4.3,21.8-6.2,32.8c-0.6,3.2-1.6,5.2-5.4,4.6
			c-1.8-0.3-3.7-0.1-5.5,0C401.2,224.5,398.8,224.2,400.6,219.1z"/>
		<path class="st14" d="M443.6,174.2c3.6-1.7,5.7-5.2,9.5-6.3c1.9-0.6,4-1.8,5.6-0.4c1.2,1,0.2,3.1,0,4.7c-0.2,1.5-0.6,2.9-0.7,4.4
			c-0.2,2.5-1.2,3.7-3.9,4.1c-9.2,1.5-12.5,5.1-14.1,14.2c-1.5,8.5-3.1,17-4.5,25.6c-0.4,2.4-1.1,3.6-4,3.7
			c-12.1,0.2-12,0.4-9.8-11.5c2.5-13.9,5-27.8,7.2-41.8c0.5-3,1.6-4,4.5-3.7c1.5,0.2,3,0,4.5,0C444.7,167.1,444.7,167.1,443.6,174.2
			z"/>
		<path class="st23" d="M301,198c5.6,0.1,11.2,0.2,16.8,0.3c0.8,3.4,1.6,6.7,2.4,10.1c-7.4,1.2-14.9,0.3-22.3,0.5
			c-0.2-3.7,0.8-7.1,1.7-10.6C300.1,198.2,300.5,198.1,301,198z"/>
		<path class="st24" d="M226.2,163c-0.1-1.1,0-2.2,0.8-3.1c1,3.3,3.8,2.1,5.9,2.1c28.5,0.1,57,0,85.5,0.1c1.7,0,3.5-0.5,6.1,0.9
			C291.1,163,258.6,163,226.2,163z"/>
		<path class="st25" d="M230.9,137c28.8,0,57.6,0,86.6,0c-1.1,1.6-2.4,1-3.5,1c-26,0-51.9,0-77.9,0C234.4,138,232.5,138.4,230.9,137
			C231,137,230.9,137,230.9,137z"/>
		<path class="st26" d="M247,267c0.7-0.3,1.5-0.9,2.2-0.9c17.8-0.1,35.5,0,53.3,0.9C284,267,265.5,267,247,267
			C247,267,247,267,247,267z"/>
		<path class="st17" d="M249,99c16.4,0,32.9,0,49.5,0c-0.8,1.5-1.9,1-2.8,1c-14,0-27.9,0-41.9,0C252.1,100,250.4,100.3,249,99
			L249,99z"/>
		<path class="st27" d="M524.9,212c2.9,3.3,2.9,6.6,0,9.9c-0.9,0.3-1.3-0.3-1.7-1c-0.3-2.7,0.1-5.3,0-8
			C523.6,212.3,524,211.7,524.9,212z"/>
		<path class="st28" d="M523.9,220.9c0.3,0.4,0.6,0.7,1,1.1c-4.5,3.8-7.1,3.8-9.9,0c0.2-0.2,0.3-0.3,0.5-0.5
			C518.3,221.2,521.1,221.1,523.9,220.9z"/>
		<path class="st29" d="M524.9,212c-0.3,0.4-0.6,0.7-0.9,1.1c-2.6,0.5-5.1-1-7.7-0.5c-0.7-0.3-1.1-0.8-1.2-1.5
			C518.7,208.2,521.9,208.9,524.9,212z"/>
		<path class="st30" d="M515,222c-4.9-2-3.5-5.5-2.1-9c1.1,0.4,1.8,1.2,2.2,2.2C515.2,217.5,516.8,219.8,515,222L515,222z"/>
		<path class="st2" d="M513.8,215c-0.3-0.7-0.5-1.3-0.8-2c0.5-0.8,1.1-1.7,2.1-1.9c0.3,0.2,0.6,0.5,0.8,0.7
			C516.1,213.5,515.8,214.8,513.8,215z"/>
		<path class="st31" d="M522.9,276c0.4,0.4,0.7,0.7,1.1,1.1c2.1,1,2.1,2.9,1.9,4.8c-0.4,2.5-2.2,4.1-4.1,5.5
			c-2.4,0.2-4.7,0.4-6.7-1.3l0,0c-0.9-1-1.7-2.1-1.9-3.4c0.1-2.4-0.1-4.9,1.9-6.7c0.1-0.4,0.1-0.8,0.2-1.1
			C517.8,275.1,520.8,272.9,522.9,276z"/>
		<path class="st32" d="M515,275.9c-0.7,2.3-1.6,4.6-1.1,7.1c-0.9,0.3-1.3-0.2-1.6-0.9C512.6,279.7,511,276.6,515,275.9z"/>
		<path class="st33" d="M525.2,282c-0.1-1.7-0.2-3.4-1.2-5c4.3,0.9,2.9,3.7,2.2,6.3C525.5,283.2,525.5,282.5,525.2,282z"/>
		<path class="st34" d="M522.9,276c-2.3-2-5.3,0.2-7.7-1.2C518,273.8,520.9,271.8,522.9,276z"/>
		<path class="st35" d="M525.2,282c0.3,0.4,0.7,0.9,1,1.3c-0.4,2.4-1.9,3.8-4.2,4.4c-0.6-0.4-0.6-0.8-0.1-1.2
			C523.4,285.3,524.7,283.9,525.2,282z"/>
		<path class="st36" d="M521.9,286.5c0,0.4,0.1,0.8,0.1,1.2c-2.6,0.6-5.3,1.5-6.9-1.7C517.3,286.4,519.5,287.6,521.9,286.5z"/>
		<path class="st37" d="M512.3,282c0.5,0.3,1.1,0.6,1.6,0.9c0.4,1,0.8,2,1.2,3.1C512.9,285.6,511.9,284.3,512.3,282z"/>
		<path class="st38" d="M127.1,212.1c-2,0.1-4.2-0.1-5.1-2.6c-0.9-2.5-0.6-5,1.3-7c4.1-4.3,9.5-5.2,15.1-5.2c1.6,0,2,1,1.9,2.7
			C140,207.6,135.1,212.1,127.1,212.1z"/>
		<path class="st39" d="M257.3,189c-1.2,0-2.3,0.1-3.5,0c-1.9-0.2-4.6,1-5.4-0.8c-0.9-2.1,1-4.4,2.4-6.2c2.5-3.1,5.7-4.6,9.7-3.7
			c3.5,0.9,5.7,3.3,6.5,6.9c0.6,2.6,0.1,4.2-3.1,3.9C261.6,188.8,259.4,189,257.3,189z"/>
		<path class="st40" d="M247.2,192.1c-2,2,0.8,6.2-3.5,7.1c-1.6,0.3-2.3-0.9-1.6-2.1c1.4-2.6-0.4-6.8,3.5-8
			C247.8,188.5,246.8,190.8,247.2,192.1z"/>
		<path class="st16" d="M492.2,194c-0.1,4.6-1.7,10.6-7.2,14.8c-6.1,4.6-12.3,2.3-13.8-5.2c-1.2-5.7-0.3-11.3,2.6-16.4
			c3-5.2,7.9-8.1,12.1-7C489.8,181.1,492.2,185.6,492.2,194z"/>
		<path class="st36" d="M390.1,212.1c-2.2,0-4.4,0.1-5.3-2.5c-1-2.8-0.5-5.3,1.5-7.4c3.9-4.3,9.3-4.6,14.6-4.8
			c2-0.1,2.2,1.4,2.1,3.1C402.4,207.7,397.6,212.1,390.1,212.1z"/>
		<path class="st41" d="M513.8,215c0.7-1.1,1.4-2.1,2.2-3.2c2.9-1.2,5.6-0.9,8,1.3c1.4,2.6,1.5,5.2,0,7.8c-2.7,2.8-5.8,2-9,1.2
			C514.4,219.7,513.3,217.5,513.8,215z"/>
		<path class="st42" d="M521.1,278.9c2.3,1.5-0.9,2.3,0.3,4.1c-2.5-1.2-2.2-2.6-2-4C520,278.5,520.5,278.4,521.1,278.9z"/>
		<path class="st43" d="M521.1,278.9c-0.5,0-1.1,0-1.6,0.1c-0.4,0-0.9,0.1-1.4,0.1c-0.6,0-0.7-0.7-1-1
			C518.8,276.9,520.2,276.7,521.1,278.9z"/>
		<path class="st44" d="M517.1,278.1c0.3,0.3,0.7,0.7,1,1c0,1.4,0.4,2.8-0.8,4.4C516.5,281.6,516.8,279.8,517.1,278.1z"/>
		<path class="st45" d="M520.8,219.9c-1.3-2.2-2.5-2.9-3.7,1.3c-0.5-3.6-1.5-5.8,0.4-7.7c0.5-0.5,2.2-0.3,2.8,0.2
			C522.3,215.3,521.3,217.5,520.8,219.9z"/>
	</g>
</g>
</svg>
