<svg id="Layer_1" data-name="Layer 1" xmlns="http://www.w3.org/2000/svg" viewBox="0 0 551 360"><defs><style>.cls-1{fill:#fff;}</style></defs><path class="cls-1" d="M214.11,99.62,146.7,260.78H101.92L68.53,132.21a17.61,17.61,0,0,0-9.94-14.15,176.56,176.56,0,0,0-41.18-13.23l1.07-4.63h70.9a19.32,19.32,0,0,1,18.8,15.87l17.63,92.57,43.4-109.73H214M386,208.2c0-42.61-58.75-45-58.36-63.91,0-5.82,5.55-11.91,17.6-13.23a78.5,78.5,0,0,1,41.2,7.11L393.75,104A109.94,109.94,0,0,0,354.9,97c-41.29,0-70.26,22-70.54,53C284.36,173,305,186,320.89,193.7s21.69,13.22,21.55,20c0,10.85-13.23,15.62-24.85,15.87a88.73,88.73,0,0,1-42.88-10.11L267,254.61A124.58,124.58,0,0,0,313.55,263c44,.26,72.65-21.71,72.65-54.79m108.89,52.93h38.5L500,99.62H464.45a18.67,18.67,0,0,0-17.74,11.91L384.2,260.78H428l8.61-23.94h52.83Zm-46.61-57,22-60.6,13.23,60.6ZM273.12,99.62,238.73,260.78H197.05L231.44,99.62Z"/></svg>
